<svg xmlns="http://www.w3.org/2000/svg" width="49" height="49" viewBox="0 0 49 49">
  <g id="Group_654" data-name="Group 654" transform="translate(-589 -1820)">
    <rect id="Rectangle_1701" data-name="Rectangle 1701" width="49" height="49" rx="10" transform="translate(589 1820)" fill="#f7e6e6" opacity="0.72"/>
    <path id="Path_17858" data-name="Path 17858" d="M12.835,23.018A5.134,5.134,0,1,0,7.7,17.884,5.149,5.149,0,0,0,12.835,23.018Zm0-7.7a2.567,2.567,0,1,1-2.567,2.567A2.574,2.574,0,0,1,12.835,15.317Zm-7.7,11.551A5.134,5.134,0,1,0,10.268,32,5.149,5.149,0,0,0,5.134,26.868Zm0,7.7A2.567,2.567,0,1,1,7.7,32,2.574,2.574,0,0,1,5.134,34.569Zm7.7-10.139a2.439,2.439,0,0,0,0,4.877,2.439,2.439,0,1,0,0-4.877Zm7.7,2.439A5.134,5.134,0,1,0,25.669,32,5.149,5.149,0,0,0,20.536,26.868Zm0,7.7A2.567,2.567,0,1,1,23.1,32,2.574,2.574,0,0,1,20.536,34.569Z" transform="translate(600.664 1819.557)" fill="#b00d0c"/>
  </g>
</svg>
