<svg xmlns="http://www.w3.org/2000/svg" xmlns:xlink="http://www.w3.org/1999/xlink" width="2770.458" height="854.135" viewBox="0 0 2770.458 854.135">
  <defs>
    <linearGradient id="linear-gradient" x1="0.449" y1="0.622" x2="0.703" y2="0.199" gradientUnits="objectBoundingBox">
      <stop offset="0" stop-opacity="0"/>
      <stop offset="1"/>
    </linearGradient>
    <linearGradient id="linear-gradient-2" x1="0.188" y1="-1.677" x2="0.806" y2="2.677" xlink:href="#linear-gradient"/>
    <linearGradient id="linear-gradient-3" x1="0.512" y1="0.395" x2="0.198" y2="1.073" xlink:href="#linear-gradient"/>
    <linearGradient id="linear-gradient-4" x1="0.243" y1="0.396" x2="0.502" y2="0.593" xlink:href="#linear-gradient"/>
  </defs>
  <g id="Group_127" data-name="Group 127" transform="translate(-1816.859 -7592.828)">
    <g id="Group" transform="translate(2512.718 7636.319)">
      <text id="S" transform="translate(0 323)" fill="#0f1519" font-size="419" font-family="Axiforma-ExtraBoldItalic, Axiforma" font-weight="800" font-style="italic" letter-spacing="-0.02em"><tspan x="0" y="0">S</tspan></text>
      <text id="ma" transform="translate(246.072 323)" fill="#0f1519" font-size="419" font-family="Axiforma-ExtraBoldItalic, Axiforma" font-weight="800" font-style="italic" letter-spacing="-0.02em"><tspan x="0" y="0">ma</tspan></text>
      <text id="r" transform="translate(941.038 322)" fill="#0f1519" font-size="418" font-family="Axiforma-ExtraBoldItalic, Axiforma" font-weight="800" font-style="italic" letter-spacing="-0.01em"><tspan x="0" y="0">r</tspan></text>
      <text id="t_" data-name="t " transform="translate(1123.704 324)" fill="#0f1519" font-size="420" font-family="Axiforma-ExtraBoldItalic, Axiforma" font-weight="800" font-style="italic" letter-spacing="-0.02em"><tspan x="0" y="0">t </tspan></text>
      <text id="I" transform="translate(0 714.644)" fill="#0f1519" font-size="420" font-family="Axiforma-ExtraBoldItalic, Axiforma" font-weight="800" font-style="italic" letter-spacing="-0.02em"><tspan x="0" y="0">I</tspan></text>
      <text id="nsu" transform="translate(124.716 714.644)" fill="#0f1519" font-size="420" font-family="Axiforma-ExtraBoldItalic, Axiforma" font-weight="800" font-style="italic" letter-spacing="-0.02em"><tspan x="0" y="0">nsu</tspan></text>
      <text id="r-2" data-name="r" transform="translate(849.501 712.644)" fill="#0f1519" font-size="418" font-family="Axiforma-ExtraBoldItalic, Axiforma" font-weight="800" font-style="italic" letter-spacing="-0.04em"><tspan x="0" y="0">r</tspan></text>
      <text id="an" transform="translate(1020.409 713.644)" fill="#0f1519" font-size="419" font-family="Axiforma-ExtraBoldItalic, Axiforma" font-weight="800" font-style="italic" letter-spacing="-0.02em"><tspan x="0" y="0">an</tspan></text>
      <text id="c" transform="translate(1564.201 714.644)" fill="#0f1519" font-size="420" font-family="Axiforma-ExtraBoldItalic, Axiforma" font-weight="800" font-style="italic" letter-spacing="-0.02em"><tspan x="0" y="0">c</tspan></text>
      <text id="e" transform="translate(1808.599 714.644)" fill="#0f1519" font-size="420" font-family="Axiforma-ExtraBoldItalic, Axiforma" font-weight="800" font-style="italic" letter-spacing="-0.02em"><tspan x="0" y="0">e</tspan></text>
    </g>
    <g id="Group_5" data-name="Group 5" transform="translate(1816.859 7592.828)">
      <path id="Path_44" data-name="Path 44" d="M10258.856,3465.186q-68.033,65.515-189.75,74.454-7.736.554-15.337.867-17.88.735-35.144,0H9771.35v-84.695a73,73,0,0,1,73.02-73.009h181.257c4.818.3,9.638.458,14.565.47q9.976,0,20.083-.711c40.962-3.024,74.394-22.891,72.044-54.8a34.39,34.39,0,0,0-3.818-13.457,43.5,43.5,0,0,0-9.3-11.927h0q-14.615-13.518-45.383-22.541l-61.647-15.662c-33.518-9.542-60.624-17.457-80.188-25.035-2.831-1.108-5.542-2.2-8.061-3.3q-8.988-3.964-17.336-8.325c-1.12-.578-2.217-1.2-3.313-1.759s-2.18-1.2-3.253-1.783c-61.515-34.336-95.116-85.972-100.188-155-4.373-59.25,15.662-111.139,59.263-153.763,43.179-42.167,101.128-66.611,173.932-72.37l2.217-.181c2.7-.193,5.385-.374,8.061-.518a411.2,411.2,0,0,1,48.623.12q7.447.471,14.8,1.205l4.337.458,4.337.518a354.193,354.193,0,0,1,122.126,38.4q2.856,1.5,5.7,3.06,9.927,5.446,19.649,11.578a24.1,24.1,0,0,1,8.531,31.42l-40.591,78.7-39.166,25.3-.579-.289-.662-.337c-1.036-.542-2.085-1.1-3.145-1.615a290.79,290.79,0,0,0-77.213-25.553l-3.229-.578a266.743,266.743,0,0,0-30.119-3.53,208.668,208.668,0,0,0-23.541-.121c-1.205,0-2.338.133-3.494.217a141.586,141.586,0,0,0-22.819,3.458c-1.639.4-3.241.819-4.818,1.265-28.3,8.217-42.6,25.179-41.179,44.335,1,13.638,10.3,24.975,27.709,34.3a163.068,163.068,0,0,0,29.818,11.891l60.864,17.518c34.613,9.373,61.768,17.457,79.634,23.469,88.369,30.119,135.584,86.273,141.56,167.462C10325,3367.745,10304.154,3420.61,10258.856,3465.186Z" transform="translate(-9771.35 -2774.437)" fill="#b00d0c"/>
      <path id="Path_45" data-name="Path 45" d="M10056.8,3459.766c-1.9.639-3.819,1.205-5.723,1.759-16.674.687-33.517,1.108-50.275,1.35-27.216.386-54.214.3-79.936,0-51.72-.6-98.2-1.988-130.705-1.783-11.686.072-11.107-20.481-5.217-30.541l13.542-110.669a72.7,72.7,0,0,1,43.974-14.722h.735c6.663.687,12.65,1.2,16.7.928,5.421-.422,11.36-.723,17.733-.928,20.48-.663,45.528-.313,71.743,0,24.613.3,50.3.578,74.346,0,11.807-.277,23.215-.759,33.9-1.542,40.962-3.024,74.624-22.89,72.045-54.8-.7-8.7-8.12-18.276-12.386-24.1h0a35.3,35.3,0,0,1-2.614-3.867C10182.578,3236.331,10309.681,3375.24,10056.8,3459.766Z" transform="translate(-9769.405 -2696.755)" opacity="0.57" fill="url(#linear-gradient)"/>
      <path id="Path_46" data-name="Path 46" d="M10054,2977.68Z" transform="translate(-9713.474 -2746.547)" fill="#fff"/>
      <path id="Path_47" data-name="Path 47" d="M10058.17,2978.068l1.9.374q-2.613-.494-5.217-.952a269.446,269.446,0,0,0-30.047-3.53,266.407,266.407,0,0,1,30.119,3.53Z" transform="translate(-9719.451 -2747.308)" fill="url(#linear-gradient-2)"/>
      <path id="Path_48" data-name="Path 48" d="M10243.123,2929l-40.589,78.7-39.166,25.3-.579-.289-.662-.337c-1.036-.542-2.085-1.1-3.145-1.615a290.8,290.8,0,0,0-77.212-25.552l-3.229-.579a266.586,266.586,0,0,0-30.12-3.53,208.536,208.536,0,0,0-23.54-.121c-1.205,0-2.338.133-3.494.217a141.723,141.723,0,0,0-22.819,3.458q-2.408.6-4.818,1.265c-28.3,8.217-42.6,25.179-41.179,44.335,1,13.638,10.3,24.975,27.709,34.3-29.106-10.373-156.968-115.3,24.517-241.615l2.217-.181c2.7-.193,5.385-.374,8.061-.518a411.315,411.315,0,0,1,48.624.121q7.446.47,14.795,1.2l4.337.458,4.337.518a354.274,354.274,0,0,1,122.128,38.4q2.854,1.5,5.7,3.06,9.927,5.446,19.649,11.578A24.094,24.094,0,0,1,10243.123,2929Z" transform="translate(-9743.086 -2774.416)" opacity="0.84" fill="url(#linear-gradient-3)"/>
      <path id="Path_49" data-name="Path 49" d="M10228.794,2929l-40.54,78.611-.133.084-39.167,25.3-.579-.289-.662-.337c-1.036-.542-2.085-1.1-3.145-1.615a290.815,290.815,0,0,0-77.213-25.552l-3.229-.579a266.49,266.49,0,0,0-30.119-3.53,208.552,208.552,0,0,0-23.541-.121c-1.205,0-2.276.133-3.409.217a141.723,141.723,0,0,0-22.819,3.458c-1.674.409-3.3.831-4.879,1.3V2850.886q5.336-3.988,11.072-7.976l2.217-.181c2.662-.193,5.337-.374,7.976-.518a411.2,411.2,0,0,1,48.623.12q7.484.471,14.88,1.205l3.229.337,1.023.121,4.337.518a354,354,0,0,1,122.211,38.4q2.856,1.5,5.7,3.06,9.927,5.446,19.649,11.578A24.1,24.1,0,0,1,10228.794,2929Z" transform="translate(-9728.757 -2774.42)" opacity="0.53" fill="url(#linear-gradient-4)"/>
      <path id="Path_50" data-name="Path 50" d="M10293.353,2941.473l-120,77.55-39.274,25.372L10052.4,3097.1V2785.83Z" transform="translate(-9713.801 -2785.83)" fill="#b00d0c"/>
    </g>
  </g>
</svg>
