<svg id="Group_91" data-name="Group 91" xmlns="http://www.w3.org/2000/svg" width="27.794" height="27.794" viewBox="0 0 27.794 27.794">
  <circle id="Ellipse_8" data-name="Ellipse 8" cx="13.897" cy="13.897" r="13.897" fill="none"/>
  <path id="_013-twitter-1" data-name="013-twitter-1" d="M14.7,49.414a6.284,6.284,0,0,1-1.737.476,3,3,0,0,0,1.326-1.666,6.023,6.023,0,0,1-1.911.73,3.014,3.014,0,0,0-5.214,2.061,3.1,3.1,0,0,0,.07.687,8.531,8.531,0,0,1-6.212-3.153,3.015,3.015,0,0,0,.926,4.028,2.977,2.977,0,0,1-1.362-.371v.033A3.028,3.028,0,0,0,3,55.2a3.008,3.008,0,0,1-.79.1,2.665,2.665,0,0,1-.571-.051,3.043,3.043,0,0,0,2.816,2.1A6.056,6.056,0,0,1,.721,58.634,5.645,5.645,0,0,1,0,58.593a8.485,8.485,0,0,0,4.624,1.353A8.519,8.519,0,0,0,13.2,51.369c0-.133,0-.262-.011-.39A6.013,6.013,0,0,0,14.7,49.414Z" transform="translate(6.648 -40.244)" fill="#97a5b3"/>
</svg>
