<svg xmlns="http://www.w3.org/2000/svg" width="49" height="49" viewBox="0 0 49 49">
  <g id="Group_569" data-name="Group 569" transform="translate(-883 -1810)">
    <rect id="Rectangle_1690" data-name="Rectangle 1690" width="49" height="49" rx="10" transform="translate(883 1810)" fill="#f7e6e6" opacity="0.72"/>
    <g id="receipt" transform="translate(950.379 1831.754)">
      <g id="receipt-2" data-name="receipt" transform="translate(-51.5 -7)">
        <path id="Path_13" data-name="Path 13" d="M40.6,15.1H28.52V13.087H40.6Zm0-4.027H28.52V9.06H40.6Zm0-4.027H28.52V5.034H40.6ZM25.5,20.134l1.51-1.51,1.51,1.51,1.51-1.51,1.51,1.51,1.51-1.51,1.51,1.51,1.51-1.51,1.51,1.51,1.51-1.51,1.51,1.51,1.51-1.51,1.51,1.51V0l-1.51,1.51L40.6,0,39.09,1.51,37.58,0,36.07,1.51,34.56,0,33.05,1.51,31.54,0,30.03,1.51,28.52,0,27.01,1.51,25.5,0Z" transform="translate(-25.5)" fill="#b00d0c"/>
      </g>
    </g>
  </g>
</svg>
